<svg xmlns="http://www.w3.org/2000/svg" xmlns:svg="http://www.w3.org/2000/svg" id="svg2" width="28.282" height="27.625" version="1.1"><metadata id="metadata40"/><path id="path43" d="M 26.774039,13.812501 A 12.461538,12.461538 0 0 1 14.314314,26.274039 12.461538,12.461538 0 0 1 1.8509632,13.816127 12.461538,12.461538 0 0 1 14.307062,1.3509638 12.461538,12.461538 0 0 1 26.774037,13.805249" style="fill:none;stroke:green;stroke-width:2.07692313"/><g id="g16" transform="matrix(1.6382539,0,0,1.5572263,2.5697218,1.1756426)"><rect id="rect18" width="16" height="16" x="0" y="0" style="fill-opacity:0"/></g><path style="fill:none;stroke:green;stroke-width:1px;stroke-linecap:round;stroke-linejoin:miter;stroke-opacity:1" id="path3886" d="m 8.8125011,4.3125011 2.9999999,-3"/><path id="path3888" d="m 11.812501,4.3125011 3,-3" style="fill:none;stroke:green;stroke-width:1px;stroke-linecap:round;stroke-linejoin:miter;stroke-opacity:1"/><path style="fill:none;stroke:green;stroke-width:1px;stroke-linecap:round;stroke-linejoin:miter;stroke-opacity:1" id="path3890" d="m 14.812501,4.3125011 3,-3"/><path id="path3906" d="m 10.812501,26.312501 3,-3" style="fill:none;stroke:green;stroke-width:1px;stroke-linecap:round;stroke-linejoin:miter;stroke-opacity:1"/><path style="fill:none;stroke:green;stroke-width:1px;stroke-linecap:round;stroke-linejoin:miter;stroke-opacity:1" id="path3908" d="m 13.812501,26.312501 3,-3"/><path id="path3910" d="m 16.812501,26.312501 3,-3" style="fill:none;stroke:green;stroke-width:1px;stroke-linecap:round;stroke-linejoin:miter;stroke-opacity:1"/><path style="fill:none;stroke:green;stroke-width:1px;stroke-linecap:round;stroke-linejoin:miter;stroke-opacity:1" id="path3922" d="m 23.812501,13.312501 3,-3"/><path id="path3924" d="m 23.812501,16.312501 3,-3" style="fill:none;stroke:green;stroke-width:1px;stroke-linecap:round;stroke-linejoin:miter;stroke-opacity:1"/><path style="fill:none;stroke:green;stroke-width:1px;stroke-linecap:round;stroke-linejoin:miter;stroke-opacity:1" id="path3926" d="m 23.812501,19.312501 3,-3"/><path style="fill:none;stroke:green;stroke-width:1px;stroke-linecap:round;stroke-linejoin:miter;stroke-opacity:1" id="path3932" d="m 1.8125011,11.312501 3,-2.9999999"/><path id="path3934" d="m 1.8125011,14.312501 3,-3" style="fill:none;stroke:green;stroke-width:1px;stroke-linecap:round;stroke-linejoin:miter;stroke-opacity:1"/><path style="fill:none;stroke:green;stroke-width:1px;stroke-linecap:round;stroke-linejoin:miter;stroke-opacity:1" id="path3936" d="m 1.8125011,17.312501 3,-3"/><path id="path3938" d="m 2.8125011,19.312501 2,-2" style="fill:none;stroke:green;stroke-width:1px;stroke-linecap:round;stroke-linejoin:miter;stroke-opacity:1"/><path style="fill:none;stroke:green;stroke-width:1px;stroke-linecap:round;stroke-linejoin:miter;stroke-opacity:1" id="path3940" d="m 3.8125011,21.312501 1.5,-1.5"/><path id="path3783" d="M 19.1875,8.9375007 9.437501,18.6875 M 20.8125,13.812501 c 0,3.58985 -2.910149,6.499999 -6.499999,6.499999 -3.589851,0 -6.5,-2.910149 -6.5,-6.499999 0,-3.589851 2.910149,-6.5000001 6.5,-6.5000001 3.58985,0 6.499999,2.9101491 6.499999,6.5000001 z" style="opacity:.75;fill:none;stroke:#d10b0b;stroke-width:3;stroke-linecap:butt;stroke-linejoin:miter;stroke-miterlimit:4;stroke-dasharray:none;stroke-opacity:1"/><path style="fill:none;stroke:green;stroke-width:1px;stroke-linecap:round;stroke-linejoin:miter;stroke-opacity:1" id="path3940-3" d="m 5.8125011,23.312501 1.5,-1.5"/><path id="path3938-7" d="m 8.3125011,25.312501 1.9999999,-2" style="fill:none;stroke:green;stroke-width:1px;stroke-linecap:round;stroke-linejoin:miter;stroke-opacity:1"/><path style="fill:none;stroke:green;stroke-width:1px;stroke-linecap:round;stroke-linejoin:miter;stroke-opacity:1" id="path3940-5" d="m 17.812501,4.3125011 1.5,-1.5"/><path style="fill:none;stroke:green;stroke-width:1px;stroke-linecap:round;stroke-linejoin:miter;stroke-opacity:1" id="path3940-5-3" d="m 23.812501,9.8125011 1.5,-1.5"/><path style="fill:none;stroke:green;stroke-width:1px;stroke-linecap:round;stroke-linejoin:miter;stroke-opacity:1" id="path3940-5-3-5" d="m 20.812501,5.3125011 1.5,-1.5"/><path style="fill:none;stroke:green;stroke-width:1px;stroke-linecap:round;stroke-linejoin:miter;stroke-opacity:1" id="path3940-5-3-5-6" d="m 22.812501,7.3125011 1.5,-1.5"/><path style="fill:none;stroke:green;stroke-width:1px;stroke-linecap:round;stroke-linejoin:miter;stroke-opacity:1" id="path3940-5-3-5-2" d="m 6.8125011,6.3125008 -1.5,-1.5"/><path style="fill:none;stroke:green;stroke-width:1px;stroke-linecap:round;stroke-linejoin:miter;stroke-opacity:1" id="path3940-5-3-5-2-9" d="m 23.312501,22.812501 -1.5,-1.5"/></svg>