<svg xmlns="http://www.w3.org/2000/svg" xmlns:svg="http://www.w3.org/2000/svg" id="svg2" width="27.733" height="27.733" version="1.1" viewBox="0 0 26 26"><metadata id="metadata40"/><defs id="defs4"><filter id="c" width="1.21" height="1.365" x="-.105" y="-.183" style="color-interpolation-filters:sRGB"><feGaussianBlur id="feGaussianBlur7" stdDeviation="1.598"/></filter><filter id="d" width="1.481" height="1.47" x="-.24" y="-.235" style="color-interpolation-filters:sRGB"><feGaussianBlur id="feGaussianBlur10" stdDeviation="1.598"/></filter></defs><rect style="fill:green;fill-opacity:1;stroke:none;stroke-width:.9375;stroke-miterlimit:4;stroke-dasharray:none;stroke-dashoffset:1.99997282;stroke-opacity:1" id="rect4495" width="26" height="26" x="0" y="0"/><g id="g16" transform="matrix(1.6382539,0,0,1.5572263,1.2572207,0.36314149)"><rect id="rect18" width="16" height="16" x="0" y="0" style="fill-opacity:0"/></g><rect style="opacity:.25;fill:green;fill-opacity:1;stroke:#b3b3b3;stroke-width:2.24165964;stroke-linejoin:round;stroke-miterlimit:4;stroke-dasharray:none;stroke-dashoffset:1.99997282;stroke-opacity:1" id="rect4737" width="26" height="26" x="0" y="0"/><g id="g845" transform="translate(28,-6.000001)"><path id="path3867-9-4-36" d="m -18.5,13.625001 c 0,-1.932997 1.567003,-3.5 3.5,-3.5 1.932998,0 3.5,1.567003 3.5,3.5 0,1.932997 -1.567002,3.5 -3.5,3.5 -1.932997,0 -3.5,-1.567003 -3.5,-3.5 z" style="opacity:1;fill:none;fill-opacity:1;stroke:#fc0;stroke-width:2.4375;stroke-linecap:round;stroke-linejoin:miter;stroke-miterlimit:4;stroke-dasharray:none;stroke-opacity:1"/><path id="path3867-9-4-6" d="m -12.75,24.250001 c 0,-1.932996 1.567003,-3.499999 3.500001,-3.499999 1.932996,0 3.499999,1.567003 3.499999,3.499999 0,1.932998 -1.567003,3.500001 -3.499999,3.500001 -1.932998,0 -3.500001,-1.567003 -3.500001,-3.500001 z" style="opacity:1;fill:none;fill-opacity:1;stroke:#fc0;stroke-width:2.4375;stroke-linecap:round;stroke-linejoin:miter;stroke-miterlimit:4;stroke-dasharray:none;stroke-opacity:1"/><path id="path3867-9-4-3" d="m -24.25,24.375001 c 0,-1.932997 1.567003,-3.5 3.5,-3.5 1.932997,0 3.5,1.567003 3.5,3.5 0,1.932997 -1.567003,3.5 -3.5,3.5 -1.932997,0 -3.5,-1.567003 -3.5,-3.5 z" style="opacity:1;fill:none;fill-opacity:1;stroke:#fc0;stroke-width:2.4375;stroke-linecap:round;stroke-linejoin:miter;stroke-miterlimit:4;stroke-dasharray:none;stroke-opacity:1"/></g></svg>